<svg xmlns="http://www.w3.org/2000/svg" width="14.277" height="20.428" viewBox="0 0 14.277 20.428">
  <path id="Path_26" data-name="Path 26" d="M507.887,1283.048c-.745-.936-1.486-1.831-2.188-2.757a32.69,32.69,0,0,1-3.748-6.063,13.129,13.129,0,0,1-1.074-3.3,7.138,7.138,0,1,1,14.1-2.211,8.335,8.335,0,0,1-.535,4.125,25,25,0,0,1-2.807,5.333,45.587,45.587,0,0,1-3.564,4.671C508.028,1282.9,507.979,1282.948,507.887,1283.048Zm.018-10.74a2.545,2.545,0,1,0-2.535-2.585A2.534,2.534,0,0,0,507.905,1272.308Z" transform="translate(-500.778 -1262.62)" fill="#999"/>
</svg>
