<svg xmlns="http://www.w3.org/2000/svg" width="31.087" height="31.086" viewBox="0 0 31.087 31.086">
  <g id="call_icon" transform="translate(-394 -1220)">
    <path id="Path_4" data-name="Path 4" d="M402.136,1220a4.728,4.728,0,0,1,.527.214,1.569,1.569,0,0,1,.824,1.361c.072,1.018.1,2.042.239,3.051a15.432,15.432,0,0,0,.633,3.017,1.766,1.766,0,0,1-.555,2.075c-1.141,1.118-2.263,2.257-3.394,3.386-.11.11-.2.191-.1.38a26.927,26.927,0,0,0,11.005,11.064.378.378,0,0,0,.537-.084q1.672-1.7,3.367-3.37a1.923,1.923,0,0,1,2.063-.5,18.651,18.651,0,0,0,5.8.979,1.794,1.794,0,0,1,2,1.375v6.74a1.734,1.734,0,0,1-1.4,1.4h-1.639c-.129-.018-.258-.046-.387-.053a26.531,26.531,0,0,1-4.946-.7,29.044,29.044,0,0,1-18.407-13.286,28.281,28.281,0,0,1-4.135-12.144c-.066-.621-.117-1.244-.176-1.866v-1.7c.087-.2.161-.4.265-.59a1.827,1.827,0,0,1,1.071-.746Z" fill="#fff"/>
    <path id="Path_5" data-name="Path 5" d="M852.845,1394.461l-2.966-.025c-.15,0-.3,0-.47,0V1391h3.436Z" transform="translate(-427.758 -160.618)" fill="#fff"/>
    <path id="Path_6" data-name="Path 6" d="M738.975,1394.415h-3.417V1391h3.417Z" transform="translate(-320.82 -160.618)" fill="#fff"/>
    <path id="Path_7" data-name="Path 7" d="M622.035,1390.989h3.4v3.42h-3.4Z" transform="translate(-214.19 -160.607)" fill="#fff"/>
  </g>
</svg>
