<svg xmlns="http://www.w3.org/2000/svg" width="17.528" height="13.137" viewBox="0 0 17.528 13.137">
  <g id="Group_4" data-name="Group 4" transform="translate(-532.001 -1388.599)">
    <path id="Path_28" data-name="Path 28" d="M549.529,1433.821v.452q0,3.9,0,7.8c0,.911-.4,1.318-1.292,1.319q-7.5,0-15,0a1.1,1.1,0,0,1-1.237-1.22c0-2.792,0-5.585,0-8.462.143.1.24.166.332.237q3.738,2.857,7.475,5.716a1.266,1.266,0,0,0,1.914.006l7.462-5.605C549.274,1434,549.368,1433.936,549.529,1433.821Z" transform="translate(0 -41.662)" fill="#999"/>
    <path id="Path_29" data-name="Path 29" d="M541.012,1396.423l-4.363-3.36c-1.363-1.05-2.718-2.111-4.093-3.145a.477.477,0,0,1-.165-.707,1.124,1.124,0,0,1,1.1-.612c2.537.006,5.074,0,7.61,0q3.748,0,7.5,0a1.063,1.063,0,0,1,1.154.8.488.488,0,0,1-.12.415q-4.26,3.3-8.538,6.585A.445.445,0,0,1,541.012,1396.423Z" transform="translate(-0.276)" fill="#999"/>
  </g>
</svg>
