<svg xmlns="http://www.w3.org/2000/svg" width="12.457" height="22.191" viewBox="0 0 12.457 22.191">
  <path id="Path_23" data-name="Path 23" d="M547.639,1317.9h-4.16v-4.154h4.147c0-.539,0-1.045,0-1.55a9.8,9.8,0,0,1,.451-3.011,5.04,5.04,0,0,1,3.694-3.625,3.712,3.712,0,0,1,.866-.127c1.092-.015,2.185-.006,3.3-.006v4.145h-.345c-.814,0-1.627,0-2.441,0a1.26,1.26,0,0,0-1.356,1.334c-.008.857,0,1.714,0,2.571,0,.073.012.147.022.255h4.119v4.154h-4.127v9.728h-4.168Z" transform="translate(-543.479 -1305.43)" fill="#7f7f7f"/>
</svg>
