<?xml version="1.0" ?><svg id="Layer_1" style="enable-background:new 0 0 91 91;" version="1.1" viewBox="0 0 91 91" xml:space="preserve" xmlns="http://www.w3.org/2000/svg" xmlns:xlink="http://www.w3.org/1999/xlink"><g><polygon points="52.2,26.6 39.1,19.6 39.1,65 52.2,71.5  "/><path d="M36.6,19.6l-16.3,8.2c-0.6,0.3-0.9,0.9-0.9,1.5v41c0,0.6,0.3,1.1,0.8,1.4c0.3,0.2,0.6,0.3,0.9,0.3c0.2,0,0.5-0.1,0.7-0.2   L36.6,65V19.6z"/><path d="M71.2,19.4c-0.5-0.3-1.1-0.3-1.6-0.1l-14.9,7.4v44.8l16.7-8.1c0.6-0.3,1-0.9,0.9-1.5l-0.3-41C72,20.2,71.7,19.7,71.2,19.4z   "/></g></svg>