<svg xmlns="http://www.w3.org/2000/svg" width="17.528" height="17.515" viewBox="0 0 17.528 17.515">
  <path id="Path_27" data-name="Path 27" d="M439.154,1272.954a13.664,13.664,0,0,0,5.891,5.9l.97-1.237.285-.365a1.193,1.193,0,0,1,1.608-.352q1.594.815,3.184,1.637c.131.068.265.131.391.207a1.144,1.144,0,0,1,.407,1.594c-.5.81-1.01,1.615-1.545,2.4a1.728,1.728,0,0,1-1.6.759,11.9,11.9,0,0,1-5.8-1.9,19.011,19.011,0,0,1-6.945-7.281,11.658,11.658,0,0,1-1.322-3.652,11.922,11.922,0,0,1-.145-1.42,1.7,1.7,0,0,1,.8-1.557q1.118-.753,2.249-1.486a1.159,1.159,0,0,1,1.708.423c.636,1.2,1.255,2.415,1.868,3.63a1.137,1.137,0,0,1-.347,1.41c-.492.394-.995.775-1.493,1.162C439.264,1272.861,439.214,1272.9,439.154,1272.954Z" transform="translate(-434.532 -1265.982)" fill="#999"/>
</svg>
