<svg xmlns="http://www.w3.org/2000/svg" width="50.629" height="51.168" viewBox="0 0 50.629 51.168">
  <path id="Path_22" data-name="Path 22" d="M610.689,1433.81c-1.762,0-3.528-.069-5.283.039a2.685,2.685,0,0,0-1.671.834c-1.059,1.2-1.973,2.519-2.957,3.782-1.015,1.3-1.68,1.291-2.712-.04-.956-1.234-1.932-2.455-2.844-3.721a1.977,1.977,0,0,0-1.806-.911c-3.523.039-7.047.024-10.571.013-1.779-.005-2.233-.78-1.338-2.351q8.292-14.55,16.614-29.084c.827-1.444,1.823-1.423,2.664.047q8.256,14.433,16.5,28.874c1.015,1.779.585,2.516-1.427,2.52-1.722,0-3.443,0-5.165,0Zm-26.3-2.477c.616.029,1,.063,1.381.064,2.4,0,4.808-.05,7.209.025a1.284,1.284,0,0,0,1.536-1.181c.878-3.7,1.818-7.381,2.733-11.071.19-.766.4-1.566,1.41-1.474,1.076.1,1.125.938,1.141,1.786q.127,6.968.28,13.935c.01.462.053.922.1,1.757.882-1.122,1.572-1.931,2.182-2.8a2.206,2.206,0,0,1,2.032-.994c2.923.042,5.848.018,8.772.012.37,0,.74-.048,1.3-.087l-15.032-26.345Z" transform="translate(189.645 -1507.31) rotate(29)"/>
</svg>
