<svg xmlns="http://www.w3.org/2000/svg" width="25.743" height="21.018" viewBox="0 0 25.743 21.018">
  <path id="Path_24" data-name="Path 24" d="M422.656,1299.866a5.355,5.355,0,0,1-4.916-3.679,5.466,5.466,0,0,0,2.285-.087,5.427,5.427,0,0,1-4.192-5.278,5.5,5.5,0,0,0,2.406.661,5.334,5.334,0,0,1-2.307-3.9,5.162,5.162,0,0,1,.684-3.156,15.114,15.114,0,0,0,10.876,5.53,11.766,11.766,0,0,1-.087-1.227,5.293,5.293,0,0,1,8.937-3.813.514.514,0,0,0,.527.145,10.975,10.975,0,0,0,2.793-1.074l.254-.137a5.527,5.527,0,0,1-2.2,2.871,10.019,10.019,0,0,0,2.9-.772,10.851,10.851,0,0,1-1.9,2.153,1.081,1.081,0,0,1-.21.173c-.46.226-.508.6-.507,1.076a14.867,14.867,0,0,1-16.068,15.048,14.64,14.64,0,0,1-6.774-2.151c-.074-.045-.144-.1-.282-.189A10.785,10.785,0,0,0,422.656,1299.866Z" transform="translate(-414.873 -1283.418)"/>
</svg>
